%
M48
M72
T01C0.0120
T02C0.0354
T03C0.0374
T04C0.0394
T05C0.0906
%
T01
X2025Y555
X7340Y2855
X9400Y1805
X11525Y3180
X13275Y3680
X13365Y4555
X12525Y5180
X11525Y5180
X10650Y5805
X10275Y6180
X9400Y5555
X7650Y7055
X8525Y8305
X6025Y9430
X4150Y10305
X4150Y11305
X2025Y12805
X6900Y12180
X12150Y10055
X12775Y11680
X15525Y11680
X16150Y10055
X16900Y9180
X15275Y7680
X16375Y7155
X16555Y6835
X16275Y5890
X14900Y5930
X14150Y6680
X13400Y7430
X11650Y7055
X13275Y6055
X17650Y5805
X18775Y555
X5275Y7680
X18775Y12805
T02
X14937Y2074
X14150Y2074
X13363Y2074
X13363Y1286
X14150Y1286
X14937Y1286
T03
X5967Y2302
X5967Y3286
X5967Y4074
X5967Y5058
T04
X18400Y5180
X18400Y4180
X18400Y3180
X18400Y2180
X18400Y6180
X18400Y7180
X18400Y8180
X18400Y9180
X18400Y10180
X18400Y11180
T05
X4900Y6267
X4900Y1093
M30
