G75*
%MOIN*%
%OFA0B0*%
%FSLAX24Y24*%
%IPPOS*%
%LPD*%
%AMOC8*
5,1,8,0,0,1.08239X$1,22.5*
%
%ADD10C,0.0090*%
%ADD11C,0.0554*%
%ADD12C,0.0760*%
%ADD13C,0.0574*%
%ADD14C,0.1306*%
%ADD15C,0.0120*%
%ADD16C,0.0240*%
%ADD17C,0.0160*%
D10*
X007585Y012225D02*
X007585Y012635D01*
X007859Y012635D02*
X007585Y012225D01*
X007859Y012225D02*
X007859Y012635D01*
X008046Y012567D02*
X008114Y012635D01*
X008251Y012635D01*
X008319Y012567D01*
X008319Y012293D01*
X008251Y012225D01*
X008114Y012225D01*
X008046Y012293D01*
X008046Y012567D01*
X008506Y012567D02*
X008574Y012635D01*
X008711Y012635D01*
X008780Y012567D01*
X008780Y012499D01*
X008711Y012430D01*
X008574Y012430D01*
X008506Y012362D01*
X008506Y012293D01*
X008574Y012225D01*
X008711Y012225D01*
X008780Y012293D01*
X008966Y012225D02*
X009240Y012225D01*
X009240Y012635D01*
X009427Y012635D02*
X009700Y012635D01*
X009700Y012225D01*
X009427Y012225D01*
X009564Y012430D02*
X009700Y012430D01*
X009887Y012635D02*
X009887Y012225D01*
X010161Y012225D02*
X010161Y012635D01*
X010024Y012499D01*
X009887Y012635D01*
X010808Y012635D02*
X010808Y012225D01*
X011082Y012635D01*
X011082Y012225D01*
X011268Y012225D02*
X011268Y012499D01*
X011405Y012635D01*
X011542Y012499D01*
X011542Y012225D01*
X011712Y012225D02*
X011849Y012225D01*
X011780Y012225D02*
X011780Y012635D01*
X011712Y012635D02*
X011849Y012635D01*
X012036Y012635D02*
X012172Y012499D01*
X012309Y012635D01*
X012309Y012225D01*
X012496Y012225D02*
X012496Y012499D01*
X012633Y012635D01*
X012770Y012499D01*
X012770Y012225D01*
X012956Y012293D02*
X012956Y012567D01*
X013025Y012635D01*
X013230Y012635D01*
X013230Y012225D01*
X013025Y012225D01*
X012956Y012293D01*
X012770Y012430D02*
X012496Y012430D01*
X012036Y012635D02*
X012036Y012225D01*
X011542Y012430D02*
X011268Y012430D01*
D11*
X013363Y002074D03*
X014150Y002074D03*
X014937Y002074D03*
X014937Y001286D03*
X014150Y001286D03*
X013363Y001286D03*
D12*
X018400Y002180D03*
X018400Y003180D03*
X018400Y004180D03*
X018400Y005180D03*
X018400Y006180D03*
X018400Y007180D03*
X018400Y008180D03*
X018400Y009180D03*
X018400Y010180D03*
X018400Y011180D03*
D13*
X006254Y005058D02*
X005680Y005058D01*
X005680Y004074D02*
X006254Y004074D01*
X006254Y003286D02*
X005680Y003286D01*
X005680Y002302D02*
X006254Y002302D01*
D14*
X004900Y001093D03*
X004900Y006267D03*
D15*
X005275Y007680D02*
X015275Y007680D01*
X016375Y007155D02*
X017375Y007155D01*
X018400Y008180D01*
X018400Y009180D02*
X016900Y009180D01*
X018400Y011180D02*
X004275Y011180D01*
X004150Y011305D01*
X010275Y006180D02*
X010775Y006180D01*
X011650Y007055D01*
X013275Y006055D02*
X013650Y005680D01*
X013650Y002361D01*
X013363Y002074D01*
X011990Y003180D02*
X011525Y003180D01*
X011990Y003180D02*
X013365Y004555D01*
X012525Y005180D02*
X011525Y005180D01*
X016275Y005890D02*
X016565Y006180D01*
X018400Y006180D01*
X017430Y006835D02*
X017775Y007180D01*
X018400Y007180D01*
X017430Y006835D02*
X016555Y006835D01*
D16*
X016555Y006835D03*
X016375Y007155D03*
X015275Y007680D03*
X014150Y006680D03*
X013400Y007430D03*
X011650Y007055D03*
X010275Y006180D03*
X010650Y005805D03*
X011525Y005180D03*
X012525Y005180D03*
X013365Y004555D03*
X013275Y003680D03*
X011525Y003180D03*
X009400Y001805D03*
X007340Y002855D03*
X009400Y005555D03*
X007650Y007055D03*
X008525Y008305D03*
X006025Y009430D03*
X004150Y010305D03*
X004150Y011305D03*
X002025Y012805D03*
X006900Y012180D03*
X012150Y010055D03*
X012775Y011680D03*
X015525Y011680D03*
X016150Y010055D03*
X016900Y009180D03*
X014900Y005930D03*
X016275Y005890D03*
X017650Y005805D03*
X013275Y006055D03*
X018775Y000555D03*
X005275Y007680D03*
X002025Y000555D03*
X018775Y012805D03*
D17*
X001830Y013000D02*
X001830Y000360D01*
X004599Y000360D01*
X004451Y000421D01*
X004228Y000644D01*
X004107Y000936D01*
X004107Y001251D01*
X004228Y001542D01*
X004451Y001765D01*
X004742Y001886D01*
X005058Y001886D01*
X005349Y001765D01*
X005572Y001542D01*
X005693Y001251D01*
X005693Y000936D01*
X005572Y000644D01*
X005349Y000421D01*
X005201Y000360D01*
X018970Y000360D01*
X018970Y013000D01*
X001830Y013000D01*
X001830Y012860D02*
X018970Y012860D01*
X018970Y012702D02*
X013415Y012702D01*
X013415Y012712D02*
X013307Y012820D01*
X012948Y012820D01*
X012840Y012712D01*
X012829Y012701D01*
X012818Y012712D01*
X012790Y012740D01*
X012709Y012820D01*
X012556Y012820D01*
X012501Y012765D01*
X012471Y012735D01*
X012439Y012767D01*
X012386Y012820D01*
X012233Y012820D01*
X012172Y012760D01*
X012112Y012820D01*
X011959Y012820D01*
X011942Y012804D01*
X011925Y012820D01*
X011635Y012820D01*
X011559Y012744D01*
X011482Y012820D01*
X011328Y012820D01*
X011274Y012765D01*
X011249Y012741D01*
X011248Y012747D01*
X011199Y012779D01*
X011158Y012820D01*
X011138Y012820D01*
X011120Y012832D01*
X011063Y012820D01*
X011005Y012820D01*
X010990Y012806D01*
X010970Y012802D01*
X010943Y012762D01*
X010885Y012820D01*
X010731Y012820D01*
X010623Y012712D01*
X010623Y012281D01*
X010611Y012264D01*
X010623Y012207D01*
X010623Y012148D01*
X010638Y012134D01*
X010642Y012114D01*
X010690Y012081D01*
X010731Y012040D01*
X010752Y012040D01*
X010769Y012029D01*
X010826Y012040D01*
X010885Y012040D01*
X010899Y012055D01*
X010919Y012059D01*
X010946Y012099D01*
X011005Y012040D01*
X011158Y012040D01*
X011175Y012057D01*
X011192Y012040D01*
X011345Y012040D01*
X011405Y012100D01*
X011465Y012040D01*
X011619Y012040D01*
X011627Y012048D01*
X011635Y012040D01*
X011925Y012040D01*
X011942Y012057D01*
X011959Y012040D01*
X012112Y012040D01*
X012172Y012100D01*
X012233Y012040D01*
X012386Y012040D01*
X012403Y012057D01*
X012419Y012040D01*
X012573Y012040D01*
X012633Y012100D01*
X012693Y012040D01*
X012846Y012040D01*
X012897Y012091D01*
X012948Y012040D01*
X013026Y012040D01*
X013307Y012040D01*
X013415Y012148D01*
X013415Y012712D01*
X013415Y012543D02*
X018970Y012543D01*
X018970Y012385D02*
X013415Y012385D01*
X013415Y012226D02*
X018970Y012226D01*
X018970Y012068D02*
X013334Y012068D01*
X012921Y012068D02*
X012874Y012068D01*
X012665Y012068D02*
X012600Y012068D01*
X012205Y012068D02*
X012140Y012068D01*
X011438Y012068D02*
X011372Y012068D01*
X010977Y012068D02*
X010925Y012068D01*
X010704Y012068D02*
X010265Y012068D01*
X010237Y012040D02*
X010346Y012148D01*
X010346Y012712D01*
X010291Y012767D01*
X010237Y012820D01*
X010084Y012820D01*
X010024Y012760D01*
X009964Y012820D01*
X009811Y012820D01*
X009794Y012804D01*
X009777Y012820D01*
X009350Y012820D01*
X009333Y012804D01*
X009317Y012820D01*
X009163Y012820D01*
X009055Y012712D01*
X009055Y012410D01*
X008953Y012410D01*
X008965Y012422D01*
X008965Y012499D01*
X008965Y012568D01*
X008965Y012644D01*
X008962Y012646D01*
X008896Y012712D01*
X008790Y012818D01*
X008788Y012820D01*
X008788Y012820D01*
X008712Y012820D01*
X008635Y012820D01*
X008498Y012820D01*
X008413Y012735D01*
X008330Y012818D01*
X008327Y012820D01*
X008252Y012820D01*
X008174Y012820D01*
X008037Y012820D01*
X007988Y012771D01*
X007977Y012779D01*
X007935Y012820D01*
X007915Y012820D01*
X007898Y012832D01*
X007840Y012820D01*
X007782Y012820D01*
X007768Y012806D01*
X007747Y012802D01*
X007721Y012762D01*
X007662Y012820D01*
X007509Y012820D01*
X007400Y012712D01*
X007400Y012281D01*
X007389Y012264D01*
X007400Y012207D01*
X007400Y012148D01*
X007415Y012134D01*
X007419Y012114D01*
X007467Y012081D01*
X007509Y012040D01*
X007529Y012040D01*
X007546Y012029D01*
X007604Y012040D01*
X007662Y012040D01*
X007676Y012055D01*
X007697Y012059D01*
X007723Y012099D01*
X007782Y012040D01*
X007935Y012040D01*
X007986Y012091D01*
X008037Y012040D01*
X008115Y012040D01*
X008327Y012040D01*
X008413Y012125D01*
X008429Y012108D01*
X008495Y012043D01*
X008498Y012040D01*
X008574Y012040D01*
X008788Y012040D01*
X008839Y012091D01*
X008890Y012040D01*
X009317Y012040D01*
X009333Y012057D01*
X009350Y012040D01*
X009777Y012040D01*
X009794Y012057D01*
X009811Y012040D01*
X009964Y012040D01*
X010024Y012100D01*
X010084Y012040D01*
X010237Y012040D01*
X010057Y012068D02*
X009991Y012068D01*
X010346Y012226D02*
X010619Y012226D01*
X010623Y012385D02*
X010346Y012385D01*
X010346Y012543D02*
X010623Y012543D01*
X010623Y012702D02*
X010346Y012702D01*
X009055Y012702D02*
X008907Y012702D01*
X008896Y012712D02*
X008896Y012712D01*
X008965Y012644D02*
X008965Y012644D01*
X008965Y012543D02*
X009055Y012543D01*
X008635Y012820D02*
X008635Y012820D01*
X008327Y012820D02*
X008327Y012820D01*
X008174Y012820D02*
X008174Y012820D01*
X007400Y012702D02*
X001830Y012702D01*
X001830Y012543D02*
X007400Y012543D01*
X007400Y012385D02*
X001830Y012385D01*
X001830Y012226D02*
X007396Y012226D01*
X007481Y012068D02*
X001830Y012068D01*
X001830Y011909D02*
X018970Y011909D01*
X018970Y011751D02*
X001830Y011751D01*
X001830Y011592D02*
X018077Y011592D01*
X018105Y011621D02*
X017959Y011475D01*
X017920Y011380D01*
X004400Y011380D01*
X004370Y011452D01*
X004297Y011525D01*
X004202Y011565D01*
X004098Y011565D01*
X004003Y011525D01*
X003930Y011452D01*
X003890Y011357D01*
X003890Y011253D01*
X003930Y011158D01*
X004003Y011085D01*
X004098Y011045D01*
X004127Y011045D01*
X004192Y010980D01*
X017920Y010980D01*
X017959Y010885D01*
X018105Y010739D01*
X018248Y010680D01*
X018105Y010621D01*
X017959Y010475D01*
X017880Y010283D01*
X017880Y010077D01*
X017959Y009885D01*
X018105Y009739D01*
X018248Y009680D01*
X018105Y009621D01*
X017959Y009475D01*
X017920Y009380D01*
X017068Y009380D01*
X017047Y009400D01*
X016952Y009440D01*
X016848Y009440D01*
X016753Y009400D01*
X016680Y009327D01*
X016640Y009232D01*
X016640Y009128D01*
X016680Y009033D01*
X016753Y008960D01*
X016848Y008920D01*
X016952Y008920D01*
X017047Y008960D01*
X017068Y008980D01*
X017920Y008980D01*
X017959Y008885D01*
X018105Y008739D01*
X018248Y008680D01*
X018105Y008621D01*
X017959Y008475D01*
X017880Y008283D01*
X017880Y008077D01*
X017919Y007982D01*
X017292Y007355D01*
X016543Y007355D01*
X016522Y007375D01*
X016427Y007415D01*
X016323Y007415D01*
X016228Y007375D01*
X016155Y007302D01*
X016115Y007207D01*
X016115Y007103D01*
X016155Y007008D01*
X016228Y006935D01*
X016302Y006904D01*
X016295Y006887D01*
X016295Y006783D01*
X016335Y006688D01*
X016408Y006615D01*
X016503Y006575D01*
X016607Y006575D01*
X016702Y006615D01*
X016723Y006635D01*
X017513Y006635D01*
X017858Y006980D01*
X017920Y006980D01*
X017959Y006885D01*
X018105Y006739D01*
X018248Y006680D01*
X018105Y006621D01*
X017959Y006475D01*
X017920Y006380D01*
X016482Y006380D01*
X016252Y006150D01*
X016223Y006150D01*
X016128Y006110D01*
X016055Y006037D01*
X016015Y005942D01*
X016015Y005838D01*
X016055Y005743D01*
X016128Y005670D01*
X016223Y005630D01*
X016327Y005630D01*
X016422Y005670D01*
X016495Y005743D01*
X016535Y005838D01*
X016535Y005867D01*
X016648Y005980D01*
X017920Y005980D01*
X017959Y005885D01*
X018105Y005739D01*
X018248Y005680D01*
X018105Y005621D01*
X017959Y005475D01*
X017880Y005283D01*
X017880Y005077D01*
X017959Y004885D01*
X018105Y004739D01*
X018248Y004680D01*
X018105Y004621D01*
X017959Y004475D01*
X017880Y004283D01*
X017880Y004077D01*
X017959Y003885D01*
X018105Y003739D01*
X018248Y003680D01*
X018105Y003621D01*
X017959Y003475D01*
X017880Y003283D01*
X017880Y003077D01*
X017959Y002885D01*
X018105Y002739D01*
X018195Y002702D01*
X018185Y002699D01*
X018106Y002659D01*
X018035Y002607D01*
X017973Y002545D01*
X017921Y002474D01*
X017881Y002395D01*
X017854Y002311D01*
X017840Y002224D01*
X017840Y002198D01*
X018382Y002198D01*
X018382Y002162D01*
X018418Y002162D01*
X018418Y002198D01*
X018960Y002198D01*
X018960Y002224D01*
X018946Y002311D01*
X018919Y002395D01*
X018879Y002474D01*
X018827Y002545D01*
X018765Y002607D01*
X018694Y002659D01*
X018615Y002699D01*
X018605Y002702D01*
X018695Y002739D01*
X018841Y002885D01*
X018920Y003077D01*
X018920Y003283D01*
X018841Y003475D01*
X018695Y003621D01*
X018552Y003680D01*
X018695Y003739D01*
X018841Y003885D01*
X018920Y004077D01*
X018920Y004283D01*
X018841Y004475D01*
X018695Y004621D01*
X018552Y004680D01*
X018695Y004739D01*
X018841Y004885D01*
X018920Y005077D01*
X018920Y005283D01*
X018841Y005475D01*
X018695Y005621D01*
X018552Y005680D01*
X018695Y005739D01*
X018841Y005885D01*
X018920Y006077D01*
X018920Y006283D01*
X018841Y006475D01*
X018695Y006621D01*
X018552Y006680D01*
X018695Y006739D01*
X018841Y006885D01*
X018920Y007077D01*
X018920Y007283D01*
X018841Y007475D01*
X018695Y007621D01*
X018552Y007680D01*
X018695Y007739D01*
X018841Y007885D01*
X018920Y008077D01*
X018920Y008283D01*
X018841Y008475D01*
X018695Y008621D01*
X018552Y008680D01*
X018695Y008739D01*
X018841Y008885D01*
X018920Y009077D01*
X018920Y009283D01*
X018841Y009475D01*
X018695Y009621D01*
X018552Y009680D01*
X018695Y009739D01*
X018841Y009885D01*
X018920Y010077D01*
X018920Y010283D01*
X018841Y010475D01*
X018695Y010621D01*
X018552Y010680D01*
X018695Y010739D01*
X018841Y010885D01*
X018920Y011077D01*
X018920Y011283D01*
X018841Y011475D01*
X018695Y011621D01*
X018503Y011700D01*
X018297Y011700D01*
X018105Y011621D01*
X017942Y011434D02*
X004378Y011434D01*
X003922Y011434D02*
X001830Y011434D01*
X001830Y011275D02*
X003890Y011275D01*
X003971Y011117D02*
X001830Y011117D01*
X001830Y010958D02*
X017929Y010958D01*
X018045Y010800D02*
X001830Y010800D01*
X001830Y010641D02*
X018154Y010641D01*
X017967Y010483D02*
X001830Y010483D01*
X001830Y010324D02*
X017897Y010324D01*
X017880Y010166D02*
X001830Y010166D01*
X001830Y010007D02*
X017909Y010007D01*
X017996Y009849D02*
X001830Y009849D01*
X001830Y009690D02*
X018224Y009690D01*
X018016Y009532D02*
X001830Y009532D01*
X001830Y009373D02*
X016725Y009373D01*
X016640Y009215D02*
X001830Y009215D01*
X001830Y009056D02*
X016670Y009056D01*
X017954Y008898D02*
X001830Y008898D01*
X001830Y008739D02*
X018106Y008739D01*
X018065Y008581D02*
X001830Y008581D01*
X001830Y008422D02*
X017937Y008422D01*
X017880Y008264D02*
X001830Y008264D01*
X001830Y008105D02*
X017880Y008105D01*
X017884Y007947D02*
X001830Y007947D01*
X001830Y007788D02*
X005038Y007788D01*
X005055Y007827D02*
X005015Y007732D01*
X005015Y007628D01*
X005055Y007533D01*
X005128Y007460D01*
X005223Y007420D01*
X005327Y007420D01*
X005422Y007460D01*
X005443Y007480D01*
X015107Y007480D01*
X015128Y007460D01*
X015223Y007420D01*
X015327Y007420D01*
X015422Y007460D01*
X015495Y007533D01*
X015535Y007628D01*
X015535Y007732D01*
X015495Y007827D01*
X015422Y007900D01*
X015327Y007940D01*
X015223Y007940D01*
X015128Y007900D01*
X015107Y007880D01*
X005443Y007880D01*
X005422Y007900D01*
X005327Y007940D01*
X005223Y007940D01*
X005128Y007900D01*
X005055Y007827D01*
X005015Y007630D02*
X001830Y007630D01*
X001830Y007471D02*
X005116Y007471D01*
X005434Y007471D02*
X015116Y007471D01*
X015434Y007471D02*
X017408Y007471D01*
X017567Y007630D02*
X015535Y007630D01*
X015512Y007788D02*
X017725Y007788D01*
X018674Y007630D02*
X018970Y007630D01*
X018970Y007788D02*
X018743Y007788D01*
X018866Y007947D02*
X018970Y007947D01*
X018970Y008105D02*
X018920Y008105D01*
X018920Y008264D02*
X018970Y008264D01*
X018970Y008422D02*
X018863Y008422D01*
X018970Y008581D02*
X018735Y008581D01*
X018694Y008739D02*
X018970Y008739D01*
X018970Y008898D02*
X018846Y008898D01*
X018911Y009056D02*
X018970Y009056D01*
X018970Y009215D02*
X018920Y009215D01*
X018883Y009373D02*
X018970Y009373D01*
X018970Y009532D02*
X018784Y009532D01*
X018970Y009690D02*
X018576Y009690D01*
X018804Y009849D02*
X018970Y009849D01*
X018970Y010007D02*
X018891Y010007D01*
X018920Y010166D02*
X018970Y010166D01*
X018970Y010324D02*
X018903Y010324D01*
X018970Y010483D02*
X018833Y010483D01*
X018970Y010641D02*
X018646Y010641D01*
X018755Y010800D02*
X018970Y010800D01*
X018970Y010958D02*
X018871Y010958D01*
X018920Y011117D02*
X018970Y011117D01*
X018970Y011275D02*
X018920Y011275D01*
X018970Y011434D02*
X018858Y011434D01*
X018970Y011592D02*
X018723Y011592D01*
X018842Y007471D02*
X018970Y007471D01*
X018970Y007313D02*
X018908Y007313D01*
X018920Y007154D02*
X018970Y007154D01*
X018970Y006996D02*
X018886Y006996D01*
X018970Y006837D02*
X018792Y006837D01*
X018970Y006679D02*
X018555Y006679D01*
X018245Y006679D02*
X017556Y006679D01*
X017715Y006837D02*
X018008Y006837D01*
X018005Y006520D02*
X011398Y006520D01*
X011556Y006679D02*
X016344Y006679D01*
X016295Y006837D02*
X011800Y006837D01*
X011797Y006835D02*
X011870Y006908D01*
X011910Y007003D01*
X011910Y007107D01*
X011870Y007202D01*
X011797Y007275D01*
X011702Y007315D01*
X011598Y007315D01*
X011503Y007275D01*
X011430Y007202D01*
X011390Y007107D01*
X011390Y007078D01*
X010692Y006380D01*
X010443Y006380D01*
X010422Y006400D01*
X010327Y006440D01*
X010223Y006440D01*
X010128Y006400D01*
X010055Y006327D01*
X010015Y006232D01*
X010015Y006128D01*
X010055Y006033D01*
X010128Y005960D01*
X010223Y005920D01*
X010327Y005920D01*
X010422Y005960D01*
X010443Y005980D01*
X010858Y005980D01*
X010975Y006097D01*
X011673Y006795D01*
X011702Y006795D01*
X011797Y006835D01*
X011907Y006996D02*
X016167Y006996D01*
X016115Y007154D02*
X011890Y007154D01*
X011708Y007313D02*
X016165Y007313D01*
X016464Y006362D02*
X011239Y006362D01*
X011081Y006203D02*
X013055Y006203D01*
X013055Y006202D02*
X013015Y006107D01*
X013015Y006003D01*
X013055Y005908D01*
X013128Y005835D01*
X013223Y005795D01*
X013252Y005795D01*
X013450Y005597D01*
X013450Y004801D01*
X013417Y004815D01*
X013313Y004815D01*
X013218Y004775D01*
X013145Y004702D01*
X013105Y004607D01*
X013105Y004578D01*
X011907Y003380D01*
X011693Y003380D01*
X011672Y003400D01*
X011577Y003440D01*
X011473Y003440D01*
X011378Y003400D01*
X011305Y003327D01*
X011265Y003232D01*
X011265Y003128D01*
X011305Y003033D01*
X011378Y002960D01*
X011473Y002920D01*
X011577Y002920D01*
X011672Y002960D01*
X011693Y002980D01*
X012073Y002980D01*
X012190Y003097D01*
X013388Y004295D01*
X013417Y004295D01*
X013450Y004309D01*
X013450Y002489D01*
X013446Y002491D01*
X013280Y002491D01*
X013126Y002427D01*
X013009Y002310D01*
X012945Y002157D01*
X012945Y001991D01*
X013009Y001837D01*
X013126Y001720D01*
X013171Y001702D01*
X013123Y001677D01*
X013065Y001635D01*
X013014Y001584D01*
X012972Y001526D01*
X012939Y001462D01*
X012917Y001393D01*
X012905Y001322D01*
X012905Y001295D01*
X013354Y001295D01*
X013354Y001278D01*
X012905Y001278D01*
X012905Y001250D01*
X012917Y001179D01*
X012939Y001111D01*
X012972Y001047D01*
X013014Y000988D01*
X013065Y000938D01*
X013123Y000895D01*
X013187Y000863D01*
X013256Y000840D01*
X013327Y000829D01*
X013354Y000829D01*
X013354Y001278D01*
X013371Y001278D01*
X013371Y001295D01*
X013693Y001295D01*
X014141Y001295D01*
X014141Y001278D01*
X013371Y001278D01*
X013371Y000829D01*
X013399Y000829D01*
X013470Y000840D01*
X013538Y000863D01*
X013602Y000895D01*
X013660Y000938D01*
X013711Y000988D01*
X013754Y001047D01*
X013756Y001052D01*
X013759Y001047D01*
X013801Y000988D01*
X013852Y000938D01*
X013910Y000895D01*
X013975Y000863D01*
X014043Y000840D01*
X014114Y000829D01*
X014141Y000829D01*
X014141Y001278D01*
X014159Y001278D01*
X014159Y001295D01*
X014607Y001295D01*
X014929Y001295D01*
X014929Y001278D01*
X014159Y001278D01*
X014159Y000829D01*
X014186Y000829D01*
X014257Y000840D01*
X014325Y000863D01*
X014390Y000895D01*
X014448Y000938D01*
X014499Y000988D01*
X014541Y001047D01*
X014544Y001052D01*
X014546Y001047D01*
X014589Y000988D01*
X014640Y000938D01*
X014698Y000895D01*
X014762Y000863D01*
X014830Y000840D01*
X014901Y000829D01*
X014929Y000829D01*
X014929Y001278D01*
X014946Y001278D01*
X014946Y001295D01*
X015395Y001295D01*
X015395Y001322D01*
X015383Y001393D01*
X015361Y001462D01*
X015328Y001526D01*
X015286Y001584D01*
X015235Y001635D01*
X015177Y001677D01*
X015129Y001702D01*
X015174Y001720D01*
X015291Y001837D01*
X015355Y001991D01*
X015355Y002157D01*
X015291Y002310D01*
X015174Y002427D01*
X015020Y002491D01*
X014854Y002491D01*
X014701Y002427D01*
X014584Y002310D01*
X014544Y002213D01*
X014504Y002310D01*
X014386Y002427D01*
X014233Y002491D01*
X014067Y002491D01*
X013914Y002427D01*
X013850Y002364D01*
X013850Y005763D01*
X013733Y005880D01*
X013535Y006078D01*
X013535Y006107D01*
X013495Y006202D01*
X013422Y006275D01*
X013327Y006315D01*
X013223Y006315D01*
X013128Y006275D01*
X013055Y006202D01*
X013015Y006045D02*
X010922Y006045D01*
X010832Y006520D02*
X005653Y006520D01*
X005693Y006424D02*
X005572Y006716D01*
X005349Y006939D01*
X005058Y007059D01*
X004742Y007059D01*
X004451Y006939D01*
X004228Y006716D01*
X004107Y006424D01*
X004107Y006109D01*
X004228Y005818D01*
X004451Y005595D01*
X004742Y005474D01*
X005058Y005474D01*
X005349Y005595D01*
X005572Y005818D01*
X005693Y006109D01*
X005693Y006424D01*
X005693Y006362D02*
X010089Y006362D01*
X010015Y006203D02*
X005693Y006203D01*
X005666Y006045D02*
X010050Y006045D01*
X010991Y006679D02*
X005587Y006679D01*
X005451Y006837D02*
X011149Y006837D01*
X011308Y006996D02*
X005212Y006996D01*
X004588Y006996D02*
X001830Y006996D01*
X001830Y007154D02*
X011410Y007154D01*
X011592Y007313D02*
X001830Y007313D01*
X001830Y006837D02*
X004349Y006837D01*
X004213Y006679D02*
X001830Y006679D01*
X001830Y006520D02*
X004147Y006520D01*
X004107Y006362D02*
X001830Y006362D01*
X001830Y006203D02*
X004107Y006203D01*
X004134Y006045D02*
X001830Y006045D01*
X001830Y005886D02*
X004200Y005886D01*
X004318Y005728D02*
X001830Y005728D01*
X001830Y005569D02*
X004513Y005569D01*
X005287Y005569D02*
X013450Y005569D01*
X013450Y005411D02*
X012648Y005411D01*
X012672Y005400D02*
X012577Y005440D01*
X012473Y005440D01*
X012378Y005400D01*
X012357Y005380D01*
X011693Y005380D01*
X011672Y005400D01*
X011577Y005440D01*
X011473Y005440D01*
X011378Y005400D01*
X011305Y005327D01*
X011265Y005232D01*
X011265Y005128D01*
X011305Y005033D01*
X011378Y004960D01*
X011473Y004920D01*
X011577Y004920D01*
X011672Y004960D01*
X011693Y004980D01*
X012357Y004980D01*
X012378Y004960D01*
X012473Y004920D01*
X012577Y004920D01*
X012672Y004960D01*
X012745Y005033D01*
X012785Y005128D01*
X012785Y005232D01*
X012745Y005327D01*
X012672Y005400D01*
X012777Y005252D02*
X013450Y005252D01*
X013450Y005094D02*
X012771Y005094D01*
X012613Y004935D02*
X013450Y004935D01*
X013220Y004777D02*
X006576Y004777D01*
X006616Y004816D02*
X006681Y004973D01*
X006681Y005143D01*
X006616Y005300D01*
X006496Y005420D01*
X006339Y005485D01*
X005595Y005485D01*
X005438Y005420D01*
X005318Y005300D01*
X005253Y005143D01*
X005253Y004973D01*
X005318Y004816D01*
X005438Y004696D01*
X005595Y004631D01*
X006339Y004631D01*
X006496Y004696D01*
X006616Y004816D01*
X006665Y004935D02*
X011437Y004935D01*
X011613Y004935D02*
X012437Y004935D01*
X012402Y005411D02*
X011648Y005411D01*
X011402Y005411D02*
X006505Y005411D01*
X006636Y005252D02*
X011273Y005252D01*
X011279Y005094D02*
X006681Y005094D01*
X006438Y004460D02*
X012987Y004460D01*
X013110Y004618D02*
X001830Y004618D01*
X001830Y004460D02*
X005496Y004460D01*
X005438Y004436D02*
X005318Y004316D01*
X005253Y004159D01*
X005253Y003989D01*
X005318Y003832D01*
X005438Y003712D01*
X005515Y003680D01*
X005438Y003648D01*
X005318Y003528D01*
X005253Y003371D01*
X005253Y003201D01*
X005318Y003044D01*
X005438Y002924D01*
X005595Y002859D01*
X006339Y002859D01*
X006496Y002924D01*
X006616Y003044D01*
X006681Y003201D01*
X006681Y003371D01*
X006616Y003528D01*
X006496Y003648D01*
X006419Y003680D01*
X006496Y003712D01*
X006616Y003832D01*
X006681Y003989D01*
X006681Y004159D01*
X006616Y004316D01*
X006496Y004436D01*
X006339Y004501D01*
X005595Y004501D01*
X005438Y004436D01*
X005312Y004301D02*
X001830Y004301D01*
X001830Y004143D02*
X005253Y004143D01*
X005255Y003984D02*
X001830Y003984D01*
X001830Y003826D02*
X005324Y003826D01*
X005483Y003667D02*
X001830Y003667D01*
X001830Y003509D02*
X005310Y003509D01*
X005253Y003350D02*
X001830Y003350D01*
X001830Y003192D02*
X005257Y003192D01*
X005329Y003033D02*
X001830Y003033D01*
X001830Y002875D02*
X005558Y002875D01*
X005571Y002758D02*
X005501Y002735D01*
X005435Y002701D01*
X005376Y002658D01*
X005324Y002606D01*
X005281Y002547D01*
X005247Y002481D01*
X005224Y002411D01*
X005213Y002339D01*
X005213Y002316D01*
X005953Y002316D01*
X005953Y002769D01*
X005643Y002769D01*
X005571Y002758D01*
X005464Y002716D02*
X001830Y002716D01*
X001830Y002558D02*
X005288Y002558D01*
X005222Y002399D02*
X001830Y002399D01*
X001830Y002241D02*
X005217Y002241D01*
X005213Y002265D02*
X005224Y002193D01*
X005247Y002123D01*
X005281Y002057D01*
X005324Y001998D01*
X005376Y001946D01*
X005435Y001903D01*
X005501Y001869D01*
X005571Y001847D01*
X005643Y001835D01*
X005953Y001835D01*
X005953Y002289D01*
X005213Y002289D01*
X005213Y002265D01*
X005268Y002082D02*
X001830Y002082D01*
X001830Y001924D02*
X005406Y001924D01*
X005350Y001765D02*
X013081Y001765D01*
X013036Y001607D02*
X005508Y001607D01*
X005611Y001448D02*
X012934Y001448D01*
X012932Y001131D02*
X005693Y001131D01*
X005677Y001290D02*
X013354Y001290D01*
X013371Y001290D02*
X014141Y001290D01*
X014159Y001290D02*
X014929Y001290D01*
X014946Y001290D02*
X018970Y001290D01*
X018970Y001448D02*
X015366Y001448D01*
X015395Y001278D02*
X014946Y001278D01*
X014946Y000829D01*
X014973Y000829D01*
X015044Y000840D01*
X015113Y000863D01*
X015177Y000895D01*
X015235Y000938D01*
X015286Y000988D01*
X015328Y001047D01*
X015361Y001111D01*
X015383Y001179D01*
X015395Y001250D01*
X015395Y001278D01*
X015368Y001131D02*
X018970Y001131D01*
X018970Y000973D02*
X015270Y000973D01*
X014946Y000973D02*
X014929Y000973D01*
X014929Y001131D02*
X014946Y001131D01*
X014605Y000973D02*
X014483Y000973D01*
X014159Y000973D02*
X014141Y000973D01*
X014141Y001131D02*
X014159Y001131D01*
X013817Y000973D02*
X013695Y000973D01*
X013371Y000973D02*
X013354Y000973D01*
X013354Y001131D02*
X013371Y001131D01*
X013030Y000973D02*
X005693Y000973D01*
X005642Y000814D02*
X018970Y000814D01*
X018970Y000656D02*
X005577Y000656D01*
X005425Y000497D02*
X018970Y000497D01*
X018970Y001607D02*
X015264Y001607D01*
X015219Y001765D02*
X018023Y001765D01*
X018035Y001753D02*
X018106Y001701D01*
X018185Y001661D01*
X018269Y001634D01*
X018356Y001620D01*
X018382Y001620D01*
X018382Y002162D01*
X017840Y002162D01*
X017840Y002136D01*
X017854Y002049D01*
X017881Y001965D01*
X017921Y001886D01*
X017973Y001815D01*
X018035Y001753D01*
X017902Y001924D02*
X015327Y001924D01*
X015355Y002082D02*
X017849Y002082D01*
X017843Y002241D02*
X015320Y002241D01*
X015202Y002399D02*
X017883Y002399D01*
X017986Y002558D02*
X013850Y002558D01*
X013850Y002716D02*
X018161Y002716D01*
X017970Y002875D02*
X013850Y002875D01*
X013850Y003033D02*
X017898Y003033D01*
X017880Y003192D02*
X013850Y003192D01*
X013850Y003350D02*
X017908Y003350D01*
X017993Y003509D02*
X013850Y003509D01*
X013850Y003667D02*
X018217Y003667D01*
X018019Y003826D02*
X013850Y003826D01*
X013850Y003984D02*
X017918Y003984D01*
X017880Y004143D02*
X013850Y004143D01*
X013850Y004301D02*
X017887Y004301D01*
X017953Y004460D02*
X013850Y004460D01*
X013850Y004618D02*
X018103Y004618D01*
X018068Y004777D02*
X013850Y004777D01*
X013850Y004935D02*
X017939Y004935D01*
X017880Y005094D02*
X013850Y005094D01*
X013850Y005252D02*
X017880Y005252D01*
X017933Y005411D02*
X013850Y005411D01*
X013850Y005569D02*
X018054Y005569D01*
X018134Y005728D02*
X016480Y005728D01*
X016554Y005886D02*
X017959Y005886D01*
X018666Y005728D02*
X018970Y005728D01*
X018970Y005886D02*
X018841Y005886D01*
X018907Y006045D02*
X018970Y006045D01*
X018970Y006203D02*
X018920Y006203D01*
X018888Y006362D02*
X018970Y006362D01*
X018970Y006520D02*
X018795Y006520D01*
X018746Y005569D02*
X018970Y005569D01*
X018970Y005411D02*
X018867Y005411D01*
X018920Y005252D02*
X018970Y005252D01*
X018970Y005094D02*
X018920Y005094D01*
X018970Y004935D02*
X018861Y004935D01*
X018970Y004777D02*
X018732Y004777D01*
X018697Y004618D02*
X018970Y004618D01*
X018970Y004460D02*
X018847Y004460D01*
X018913Y004301D02*
X018970Y004301D01*
X018970Y004143D02*
X018920Y004143D01*
X018882Y003984D02*
X018970Y003984D01*
X018970Y003826D02*
X018781Y003826D01*
X018970Y003667D02*
X018583Y003667D01*
X018807Y003509D02*
X018970Y003509D01*
X018970Y003350D02*
X018892Y003350D01*
X018920Y003192D02*
X018970Y003192D01*
X018970Y003033D02*
X018902Y003033D01*
X018970Y002875D02*
X018830Y002875D01*
X018970Y002716D02*
X018639Y002716D01*
X018814Y002558D02*
X018970Y002558D01*
X018970Y002399D02*
X018917Y002399D01*
X018957Y002241D02*
X018970Y002241D01*
X018960Y002162D02*
X018418Y002162D01*
X018418Y001620D01*
X018444Y001620D01*
X018531Y001634D01*
X018615Y001661D01*
X018694Y001701D01*
X018765Y001753D01*
X018827Y001815D01*
X018879Y001886D01*
X018919Y001965D01*
X018946Y002049D01*
X018960Y002136D01*
X018960Y002162D01*
X018951Y002082D02*
X018970Y002082D01*
X018970Y001924D02*
X018898Y001924D01*
X018970Y001765D02*
X018777Y001765D01*
X018418Y001765D02*
X018382Y001765D01*
X018382Y001924D02*
X018418Y001924D01*
X018418Y002082D02*
X018382Y002082D01*
X014673Y002399D02*
X014415Y002399D01*
X014532Y002241D02*
X014555Y002241D01*
X013885Y002399D02*
X013850Y002399D01*
X013450Y002558D02*
X006646Y002558D01*
X006653Y002547D02*
X006610Y002606D01*
X006558Y002658D01*
X006499Y002701D01*
X006433Y002735D01*
X006363Y002758D01*
X006291Y002769D01*
X005980Y002769D01*
X005980Y002316D01*
X005953Y002316D01*
X005953Y002289D01*
X005980Y002289D01*
X005980Y001835D01*
X006291Y001835D01*
X006363Y001847D01*
X006433Y001869D01*
X006499Y001903D01*
X006558Y001946D01*
X006610Y001998D01*
X006653Y002057D01*
X006687Y002123D01*
X006709Y002193D01*
X006721Y002265D01*
X006721Y002289D01*
X005980Y002289D01*
X005980Y002316D01*
X006721Y002316D01*
X006721Y002339D01*
X006709Y002411D01*
X006687Y002481D01*
X006653Y002547D01*
X006711Y002399D02*
X013098Y002399D01*
X012980Y002241D02*
X006717Y002241D01*
X006666Y002082D02*
X012945Y002082D01*
X012973Y001924D02*
X006527Y001924D01*
X005980Y001924D02*
X005953Y001924D01*
X005953Y002082D02*
X005980Y002082D01*
X005980Y002241D02*
X005953Y002241D01*
X005953Y002399D02*
X005980Y002399D01*
X005980Y002558D02*
X005953Y002558D01*
X005953Y002716D02*
X005980Y002716D01*
X006376Y002875D02*
X013450Y002875D01*
X013450Y003033D02*
X012126Y003033D01*
X012284Y003192D02*
X013450Y003192D01*
X013450Y003350D02*
X012443Y003350D01*
X012601Y003509D02*
X013450Y003509D01*
X013450Y003667D02*
X012760Y003667D01*
X012918Y003826D02*
X013450Y003826D01*
X013450Y003984D02*
X013077Y003984D01*
X013235Y004143D02*
X013450Y004143D01*
X013450Y004301D02*
X013431Y004301D01*
X012828Y004301D02*
X006622Y004301D01*
X006681Y004143D02*
X012670Y004143D01*
X012511Y003984D02*
X006679Y003984D01*
X006610Y003826D02*
X012353Y003826D01*
X012194Y003667D02*
X006451Y003667D01*
X006624Y003509D02*
X012036Y003509D01*
X011327Y003350D02*
X006681Y003350D01*
X006677Y003192D02*
X011265Y003192D01*
X011304Y003033D02*
X006605Y003033D01*
X006470Y002716D02*
X013450Y002716D01*
X013320Y005728D02*
X005482Y005728D01*
X005600Y005886D02*
X013076Y005886D01*
X013495Y006203D02*
X016305Y006203D01*
X016062Y006045D02*
X013568Y006045D01*
X013727Y005886D02*
X016015Y005886D01*
X016070Y005728D02*
X013850Y005728D01*
X005429Y005411D02*
X001830Y005411D01*
X001830Y005252D02*
X005298Y005252D01*
X005253Y005094D02*
X001830Y005094D01*
X001830Y004935D02*
X005269Y004935D01*
X005357Y004777D02*
X001830Y004777D01*
X001830Y001765D02*
X004450Y001765D01*
X004292Y001607D02*
X001830Y001607D01*
X001830Y001448D02*
X004189Y001448D01*
X004123Y001290D02*
X001830Y001290D01*
X001830Y001131D02*
X004107Y001131D01*
X004107Y000973D02*
X001830Y000973D01*
X001830Y000814D02*
X004158Y000814D01*
X004223Y000656D02*
X001830Y000656D01*
X001830Y000497D02*
X004375Y000497D01*
X007703Y012068D02*
X007755Y012068D01*
X007963Y012068D02*
X008010Y012068D01*
X008355Y012068D02*
X008470Y012068D01*
X008498Y012040D02*
X008498Y012040D01*
X008429Y012108D02*
X008429Y012108D01*
X008815Y012068D02*
X008862Y012068D01*
X012818Y012712D02*
X012818Y012712D01*
X012828Y012702D02*
X012829Y012702D01*
M02*
