G75*
%MOIN*%
%OFA0B0*%
%FSLAX24Y24*%
%IPPOS*%
%LPD*%
%AMOC8*
5,1,8,0,0,1.08239X$1,22.5*
%
%ADD10C,0.0000*%
%ADD11C,0.0050*%
%ADD12C,0.0080*%
%ADD13C,0.0060*%
%ADD14R,0.0059X0.0118*%
%ADD15R,0.0118X0.0118*%
D10*
X001650Y000180D02*
X001650Y013180D01*
X019150Y013180D01*
X019150Y000180D01*
X001650Y000180D01*
D11*
X007425Y004500D02*
X007470Y004455D01*
X007560Y004455D01*
X007605Y004500D01*
X007605Y004725D01*
X007720Y004635D02*
X007810Y004725D01*
X007810Y004455D01*
X007720Y004455D02*
X007900Y004455D01*
X007425Y004500D02*
X007425Y004725D01*
X008705Y004840D02*
X008795Y004750D01*
X008750Y004635D02*
X008705Y004590D01*
X008705Y004500D01*
X008750Y004455D01*
X008930Y004455D01*
X008975Y004500D01*
X008975Y004590D01*
X008930Y004635D01*
X008975Y004750D02*
X008975Y004930D01*
X008975Y004840D02*
X008705Y004840D01*
X007200Y005850D02*
X007200Y005940D01*
X007155Y005985D01*
X007200Y006100D02*
X007200Y006280D01*
X007200Y006190D02*
X006930Y006190D01*
X007020Y006100D01*
X006975Y005985D02*
X006930Y005940D01*
X006930Y005850D01*
X006975Y005805D01*
X007155Y005805D01*
X007200Y005850D01*
X007155Y006394D02*
X006975Y006394D01*
X006930Y006439D01*
X006930Y006529D01*
X006975Y006574D01*
X007155Y006394D01*
X007200Y006439D01*
X007200Y006529D01*
X007155Y006574D01*
X006975Y006574D01*
X006519Y006530D02*
X006339Y006530D01*
X006429Y006530D02*
X006429Y006800D01*
X006339Y006710D01*
X006225Y006800D02*
X006225Y006530D01*
X006045Y006800D01*
X006045Y006530D01*
X005930Y006575D02*
X005885Y006530D01*
X005795Y006530D01*
X005750Y006575D01*
X005750Y006755D01*
X005795Y006800D01*
X005885Y006800D01*
X005930Y006755D01*
X006025Y007455D02*
X005755Y007455D01*
X006025Y007455D02*
X006025Y007635D01*
X006025Y007750D02*
X006025Y007930D01*
X006025Y007840D02*
X005755Y007840D01*
X005845Y007750D01*
X005580Y008555D02*
X005400Y008555D01*
X005355Y008600D01*
X005355Y008690D01*
X005400Y008735D01*
X005445Y008850D02*
X005355Y008940D01*
X005625Y008940D01*
X005625Y008850D02*
X005625Y009030D01*
X005625Y009144D02*
X005625Y009324D01*
X005625Y009234D02*
X005355Y009234D01*
X005445Y009144D01*
X005580Y008735D02*
X005625Y008690D01*
X005625Y008600D01*
X005580Y008555D01*
X007140Y008600D02*
X007185Y008555D01*
X007365Y008555D01*
X007410Y008600D01*
X007410Y008690D01*
X007365Y008735D01*
X007410Y008850D02*
X007410Y009030D01*
X007410Y008940D02*
X007140Y008940D01*
X007230Y008850D01*
X007185Y008735D02*
X007140Y008690D01*
X007140Y008600D01*
X007185Y009144D02*
X007140Y009189D01*
X007140Y009279D01*
X007185Y009324D01*
X007230Y009324D01*
X007410Y009144D01*
X007410Y009324D01*
X007820Y008400D02*
X007775Y008355D01*
X007775Y008175D01*
X007820Y008130D01*
X007910Y008130D01*
X007955Y008175D01*
X008070Y008130D02*
X008250Y008130D01*
X008160Y008130D02*
X008160Y008400D01*
X008070Y008310D01*
X007955Y008355D02*
X007910Y008400D01*
X007820Y008400D01*
X008364Y008355D02*
X008409Y008400D01*
X008499Y008400D01*
X008544Y008355D01*
X008544Y008310D01*
X008499Y008265D01*
X008544Y008220D01*
X008544Y008175D01*
X008499Y008130D01*
X008409Y008130D01*
X008364Y008175D01*
X008454Y008265D02*
X008499Y008265D01*
X010105Y007885D02*
X010150Y007930D01*
X010195Y007930D01*
X010240Y007885D01*
X010285Y007930D01*
X010330Y007930D01*
X010375Y007885D01*
X010375Y007795D01*
X010330Y007750D01*
X010375Y007635D02*
X010285Y007545D01*
X010285Y007590D02*
X010285Y007455D01*
X010375Y007455D02*
X010105Y007455D01*
X010105Y007590D01*
X010150Y007635D01*
X010240Y007635D01*
X010285Y007590D01*
X010150Y007750D02*
X010105Y007795D01*
X010105Y007885D01*
X010240Y007885D02*
X010240Y007840D01*
X009605Y006900D02*
X009470Y006765D01*
X009650Y006765D01*
X009605Y006630D02*
X009605Y006900D01*
X009355Y006855D02*
X009355Y006765D01*
X009310Y006720D01*
X009175Y006720D01*
X009175Y006630D02*
X009175Y006900D01*
X009310Y006900D01*
X009355Y006855D01*
X009265Y006720D02*
X009355Y006630D01*
X010455Y006430D02*
X010455Y006250D01*
X010500Y006135D02*
X010455Y006090D01*
X010455Y006000D01*
X010500Y005955D01*
X010680Y005955D01*
X010725Y006000D01*
X010725Y006090D01*
X010680Y006135D01*
X010680Y006250D02*
X010725Y006250D01*
X010680Y006250D02*
X010500Y006430D01*
X010455Y006430D01*
X010925Y005400D02*
X011060Y005400D01*
X011105Y005355D01*
X011105Y005265D01*
X011060Y005220D01*
X010925Y005220D01*
X010925Y005130D02*
X010925Y005400D01*
X011015Y005220D02*
X011105Y005130D01*
X011220Y005130D02*
X011400Y005130D01*
X011310Y005130D02*
X011310Y005400D01*
X011220Y005310D01*
X011811Y006349D02*
X011811Y006439D01*
X011811Y006394D02*
X012081Y006394D01*
X012081Y006349D02*
X012081Y006439D01*
X012036Y006545D02*
X011856Y006545D01*
X011811Y006590D01*
X011811Y006680D01*
X011856Y006725D01*
X011901Y006840D02*
X011811Y006930D01*
X012081Y006930D01*
X012081Y006840D02*
X012081Y007020D01*
X012036Y006725D02*
X012081Y006680D01*
X012081Y006590D01*
X012036Y006545D01*
X013970Y004400D02*
X013925Y004355D01*
X013925Y004175D01*
X013970Y004130D01*
X014060Y004130D01*
X014105Y004175D01*
X014220Y004175D02*
X014220Y004220D01*
X014265Y004265D01*
X014355Y004265D01*
X014400Y004220D01*
X014400Y004175D01*
X014355Y004130D01*
X014265Y004130D01*
X014220Y004175D01*
X014265Y004265D02*
X014220Y004310D01*
X014220Y004355D01*
X014265Y004400D01*
X014355Y004400D01*
X014400Y004355D01*
X014400Y004310D01*
X014355Y004265D01*
X014105Y004355D02*
X014060Y004400D01*
X013970Y004400D01*
X014009Y002900D02*
X014099Y002900D01*
X014054Y002900D02*
X014054Y002675D01*
X014009Y002630D01*
X013964Y002630D01*
X013919Y002675D01*
X014213Y002630D02*
X014393Y002630D01*
X014303Y002630D02*
X014303Y002900D01*
X014213Y002810D01*
X015480Y002174D02*
X015480Y002084D01*
X015525Y002039D01*
X015525Y001924D02*
X015480Y001879D01*
X015480Y001789D01*
X015525Y001744D01*
X015705Y001744D01*
X015750Y001789D01*
X015750Y001879D01*
X015705Y001924D01*
X015615Y001924D01*
X015615Y001834D01*
X015750Y002039D02*
X015570Y002219D01*
X015525Y002219D01*
X015480Y002174D01*
X015750Y002219D02*
X015750Y002039D01*
X015480Y001630D02*
X015480Y001450D01*
X015750Y001450D01*
X015705Y001335D02*
X015750Y001290D01*
X015750Y001200D01*
X015705Y001155D01*
X015525Y001155D01*
X015480Y001200D01*
X015480Y001290D01*
X015525Y001335D01*
X015615Y001450D02*
X015615Y001540D01*
X014599Y000725D02*
X014599Y000455D01*
X014509Y000455D02*
X014689Y000455D01*
X014509Y000635D02*
X014599Y000725D01*
X014394Y000680D02*
X014349Y000725D01*
X014259Y000725D01*
X014214Y000680D01*
X014214Y000500D01*
X014259Y000455D01*
X014349Y000455D01*
X014394Y000500D01*
X014394Y000590D01*
X014304Y000590D01*
X014100Y000725D02*
X013920Y000725D01*
X013920Y000455D01*
X013805Y000500D02*
X013760Y000455D01*
X013670Y000455D01*
X013625Y000500D01*
X013625Y000680D01*
X013670Y000725D01*
X013760Y000725D01*
X013805Y000680D01*
X013920Y000590D02*
X014010Y000590D01*
X012825Y001200D02*
X012825Y001290D01*
X012780Y001335D01*
X012825Y001450D02*
X012555Y001450D01*
X012555Y001630D01*
X012600Y001744D02*
X012555Y001789D01*
X012555Y001879D01*
X012600Y001924D01*
X012690Y001924D02*
X012690Y001834D01*
X012690Y001924D02*
X012780Y001924D01*
X012825Y001879D01*
X012825Y001789D01*
X012780Y001744D01*
X012600Y001744D01*
X012690Y001540D02*
X012690Y001450D01*
X012600Y001335D02*
X012555Y001290D01*
X012555Y001200D01*
X012600Y001155D01*
X012780Y001155D01*
X012825Y001200D01*
X012780Y002039D02*
X012600Y002039D01*
X012555Y002084D01*
X012555Y002174D01*
X012600Y002219D01*
X012780Y002039D01*
X012825Y002084D01*
X012825Y002174D01*
X012780Y002219D01*
X012600Y002219D01*
X011400Y003130D02*
X011220Y003130D01*
X011400Y003310D01*
X011400Y003355D01*
X011355Y003400D01*
X011265Y003400D01*
X011220Y003355D01*
X011105Y003355D02*
X011060Y003400D01*
X010925Y003400D01*
X010925Y003130D01*
X010925Y003220D02*
X011060Y003220D01*
X011105Y003265D01*
X011105Y003355D01*
X011015Y003220D02*
X011105Y003130D01*
X008970Y002916D02*
X008970Y002735D01*
X008790Y002916D01*
X008745Y002916D01*
X008700Y002870D01*
X008700Y002780D01*
X008745Y002735D01*
X008745Y002621D02*
X008700Y002576D01*
X008700Y002486D01*
X008745Y002441D01*
X008925Y002441D01*
X008970Y002486D01*
X008970Y002576D01*
X008925Y002621D01*
X004561Y007005D02*
X004515Y006960D01*
X004425Y006960D01*
X004380Y007005D01*
X004380Y007095D02*
X004470Y007140D01*
X004515Y007140D01*
X004561Y007095D01*
X004561Y007005D01*
X004380Y007095D02*
X004380Y007230D01*
X004561Y007230D01*
X004266Y007185D02*
X004266Y007095D01*
X004221Y007050D01*
X004086Y007050D01*
X004176Y007050D02*
X004266Y006960D01*
X004086Y006960D02*
X004086Y007230D01*
X004221Y007230D01*
X004266Y007185D01*
X002125Y007155D02*
X002125Y007335D01*
X002125Y007450D02*
X002125Y007630D01*
X002125Y007744D02*
X002125Y007879D01*
X002080Y007924D01*
X001900Y007924D01*
X001855Y007879D01*
X001855Y007744D01*
X002125Y007744D01*
X001990Y007540D02*
X001990Y007450D01*
X001855Y007450D02*
X002125Y007450D01*
X001855Y007450D02*
X001855Y007630D01*
X001945Y008039D02*
X001855Y008129D01*
X002125Y008129D01*
X002125Y008039D02*
X002125Y008219D01*
X002125Y007155D02*
X001855Y007155D01*
X004355Y010574D02*
X004355Y010754D01*
X004445Y010868D02*
X004355Y010958D01*
X004625Y010958D01*
X004625Y010868D02*
X004625Y011049D01*
X004490Y010664D02*
X004490Y010574D01*
X004625Y010574D02*
X004355Y010574D01*
X003744Y012605D02*
X003564Y012605D01*
X003744Y012785D01*
X003744Y012830D01*
X003699Y012875D01*
X003609Y012875D01*
X003564Y012830D01*
X003450Y012875D02*
X003450Y012605D01*
X003270Y012875D01*
X003270Y012605D01*
X003155Y012650D02*
X003110Y012605D01*
X003020Y012605D01*
X002975Y012650D01*
X002975Y012830D01*
X003020Y012875D01*
X003110Y012875D01*
X003155Y012830D01*
X007825Y012500D02*
X007915Y012500D01*
X007870Y012500D02*
X007870Y012230D01*
X007825Y012230D02*
X007915Y012230D01*
X008021Y012275D02*
X008066Y012230D01*
X008157Y012230D01*
X008202Y012275D01*
X008316Y012230D02*
X008496Y012410D01*
X008496Y012455D01*
X008451Y012500D01*
X008361Y012500D01*
X008316Y012455D01*
X008202Y012455D02*
X008157Y012500D01*
X008066Y012500D01*
X008021Y012455D01*
X008021Y012275D01*
X008316Y012230D02*
X008496Y012230D01*
X012425Y010680D02*
X012425Y010500D01*
X012470Y010455D01*
X012560Y010455D01*
X012605Y010500D01*
X012720Y010500D02*
X012765Y010455D01*
X012855Y010455D01*
X012900Y010500D01*
X012900Y010590D01*
X012855Y010635D01*
X012810Y010635D01*
X012720Y010590D01*
X012720Y010725D01*
X012900Y010725D01*
X012605Y010680D02*
X012560Y010725D01*
X012470Y010725D01*
X012425Y010680D01*
X012970Y011630D02*
X012925Y011675D01*
X012925Y011855D01*
X012970Y011900D01*
X013060Y011900D01*
X013105Y011855D01*
X013220Y011765D02*
X013400Y011765D01*
X013355Y011630D02*
X013355Y011900D01*
X013220Y011765D01*
X013105Y011675D02*
X013060Y011630D01*
X012970Y011630D01*
X013925Y010755D02*
X013970Y010800D01*
X014060Y010800D01*
X014105Y010755D01*
X014105Y010575D01*
X014060Y010530D01*
X013970Y010530D01*
X013925Y010575D01*
X013925Y010755D01*
X014015Y010620D02*
X014105Y010530D01*
X014220Y010530D02*
X014400Y010530D01*
X014310Y010530D02*
X014310Y010800D01*
X014220Y010710D01*
X015425Y010680D02*
X015425Y010500D01*
X015470Y010455D01*
X015560Y010455D01*
X015605Y010500D01*
X015720Y010500D02*
X015720Y010590D01*
X015855Y010590D01*
X015900Y010545D01*
X015900Y010500D01*
X015855Y010455D01*
X015765Y010455D01*
X015720Y010500D01*
X015720Y010590D02*
X015810Y010680D01*
X015900Y010725D01*
X015605Y010680D02*
X015560Y010725D01*
X015470Y010725D01*
X015425Y010680D01*
X015355Y011630D02*
X015265Y011630D01*
X015220Y011675D01*
X015105Y011675D02*
X015060Y011630D01*
X014970Y011630D01*
X014925Y011675D01*
X014925Y011855D01*
X014970Y011900D01*
X015060Y011900D01*
X015105Y011855D01*
X015220Y011855D02*
X015265Y011900D01*
X015355Y011900D01*
X015400Y011855D01*
X015400Y011810D01*
X015355Y011765D01*
X015400Y011720D01*
X015400Y011675D01*
X015355Y011630D01*
X015355Y011765D02*
X015310Y011765D01*
X018145Y011895D02*
X018190Y011850D01*
X018235Y011850D01*
X018280Y011895D01*
X018280Y012120D01*
X018235Y012120D02*
X018325Y012120D01*
X018440Y012075D02*
X018485Y012120D01*
X018575Y012120D01*
X018620Y012075D01*
X018620Y012030D01*
X018440Y011850D01*
X018620Y011850D01*
X016655Y006430D02*
X016475Y006430D01*
X016430Y006385D01*
X016430Y006295D01*
X016475Y006250D01*
X016520Y006250D01*
X016565Y006295D01*
X016565Y006430D01*
X016655Y006430D02*
X016700Y006385D01*
X016700Y006295D01*
X016655Y006250D01*
X016655Y006135D02*
X016700Y006090D01*
X016700Y006000D01*
X016655Y005955D01*
X016475Y005955D01*
X016430Y006000D01*
X016430Y006090D01*
X016475Y006135D01*
D12*
X015424Y005483D02*
X015424Y007877D01*
X015347Y007954D01*
X012953Y007954D01*
X012876Y007877D01*
X012876Y005483D01*
X012953Y005406D01*
X015347Y005406D01*
X015424Y005483D01*
X015272Y002428D02*
X013028Y002428D01*
X013028Y001837D01*
X013049Y001825D01*
X013068Y001810D01*
X013086Y001793D01*
X013100Y001773D01*
X013112Y001751D01*
X013120Y001728D01*
X013125Y001704D01*
X013127Y001680D01*
X013125Y001656D01*
X013120Y001632D01*
X013112Y001609D01*
X013100Y001587D01*
X013086Y001567D01*
X013068Y001550D01*
X013049Y001535D01*
X013028Y001523D01*
X013028Y000932D01*
X015272Y000932D01*
X015272Y001523D01*
X015251Y001535D01*
X015232Y001550D01*
X015214Y001567D01*
X015200Y001587D01*
X015188Y001609D01*
X015180Y001632D01*
X015175Y001656D01*
X015173Y001680D01*
X015175Y001704D01*
X015180Y001728D01*
X015188Y001751D01*
X015200Y001773D01*
X015214Y001793D01*
X015232Y001810D01*
X015251Y001825D01*
X015272Y001837D01*
X015272Y002428D01*
X008275Y003355D02*
X008275Y004005D01*
X007775Y004005D02*
X007525Y004005D01*
X007025Y004005D02*
X007025Y003355D01*
X006518Y003580D02*
X006518Y003780D01*
X006518Y004380D02*
X006518Y004755D01*
X006518Y005355D02*
X006518Y006343D01*
X005638Y006343D01*
X004168Y006343D02*
X001638Y006343D01*
X001738Y009230D02*
X002131Y009230D01*
X003062Y009230D02*
X003706Y009230D01*
X003706Y009624D01*
X004825Y010630D02*
X004825Y010980D01*
X005475Y010980D02*
X005475Y010630D01*
X003706Y011986D02*
X003706Y012380D01*
X003699Y012380D02*
X003062Y012380D01*
X002131Y012380D02*
X001738Y012380D01*
X007469Y012035D02*
X007469Y009575D01*
X008831Y009575D01*
X008831Y012035D01*
X007469Y012035D01*
X013343Y010330D02*
X013343Y009030D01*
X014957Y009030D01*
X014957Y010330D01*
X013343Y010330D01*
X007775Y003355D02*
X007650Y003355D01*
X006518Y002980D02*
X006518Y002605D01*
X006518Y002005D02*
X006518Y001017D01*
X005638Y001017D01*
X004168Y001017D02*
X001638Y001017D01*
D13*
X014896Y007613D02*
X014898Y007640D01*
X014904Y007666D01*
X014913Y007691D01*
X014926Y007714D01*
X014942Y007735D01*
X014961Y007754D01*
X014982Y007770D01*
X015005Y007783D01*
X015030Y007792D01*
X015056Y007798D01*
X015083Y007800D01*
X015110Y007798D01*
X015136Y007792D01*
X015161Y007783D01*
X015184Y007770D01*
X015205Y007754D01*
X015224Y007735D01*
X015240Y007714D01*
X015253Y007691D01*
X015262Y007666D01*
X015268Y007640D01*
X015270Y007613D01*
X015268Y007586D01*
X015262Y007560D01*
X015253Y007535D01*
X015240Y007512D01*
X015224Y007491D01*
X015205Y007472D01*
X015184Y007456D01*
X015161Y007443D01*
X015136Y007434D01*
X015110Y007428D01*
X015083Y007426D01*
X015056Y007428D01*
X015030Y007434D01*
X015005Y007443D01*
X014982Y007456D01*
X014961Y007472D01*
X014942Y007491D01*
X014926Y007512D01*
X014913Y007535D01*
X014904Y007560D01*
X014898Y007586D01*
X014896Y007613D01*
D14*
X002761Y007621D03*
X002289Y007621D03*
D15*
X002525Y007621D03*
M02*
